<svg width="97" height="82" viewBox="0 0 97 82" fill="none" xmlns="http://www.w3.org/2000/svg">
<path d="M52.486 41.6736L38.1002 30.6536L46.5524 9.70532C41.3749 3.65174 33.0629 0.441437 25.6672 0.441437C24.9011 0.441437 24.1501 0.469312 23.424 0.539C14.5011 1.42172 8.25211 4.18137 4.31643 8.97592C0.410797 13.724 -0.856031 20.2329 0.566021 28.2935C4.03102 47.8898 43.1174 79.3331 44.7798 80.6572C45.5309 81.2612 46.4723 81.5632 47.4086 81.5632C48.35 81.5632 49.2964 81.2565 50.0474 80.6479C50.4881 80.3041 53.4824 77.8604 57.7135 74.1344L45.2906 59.2769L52.486 41.6736ZM92.699 8.98057C88.7583 4.18602 82.5043 1.42636 73.5914 0.543646C72.8654 0.469312 72.1143 0.441437 71.3532 0.441437C63.617 0.441437 54.8644 3.89797 49.762 10.4672C49.5818 10.2442 46.8628 10.0584 46.6776 9.8447L43.1375 29.8777L58.2493 40.5818L50.5832 57.9156L58.9052 73.0844C71.0077 62.292 93.9809 42.2729 96.4394 28.2842C97.8564 20.2329 96.5996 13.7287 92.699 8.98057Z" fill="#B4184C"/>
</svg>
